<svg width="80" height="43" viewBox="0 0 80 43" fill="none" xmlns="http://www.w3.org/2000/svg">
<g clip-path="url(#clip0_1014_2316)">
<path d="M2.55 40L15.15 2.75H25.45L38.05 40H29.6L27.1 32.4H13.45L10.95 40H2.55ZM15.6 25.65H24.95L19.25 8.05H21.35L15.6 25.65ZM58.3074 40.6C55.6408 40.6 53.1574 40.1167 50.8574 39.15C48.5574 38.1833 46.5408 36.8333 44.8074 35.1C43.0741 33.3667 41.7241 31.3333 40.7574 29C39.7908 26.6667 39.3074 24.1167 39.3074 21.35C39.3074 18.5833 39.7741 16.0333 40.7074 13.7C41.6408 11.3333 42.9574 9.3 44.6574 7.6C46.3574 5.86667 48.3408 4.53333 50.6074 3.6C52.9074 2.63333 55.4074 2.15 58.1074 2.15C60.8074 2.15 63.2241 2.6 65.3574 3.5C67.5241 4.4 69.3574 5.6 70.8574 7.1C72.3574 8.6 73.4241 10.2667 74.0574 12.1L67.2074 15.4C66.5741 13.6 65.4574 12.1167 63.8574 10.95C62.2908 9.75 60.3741 9.15 58.1074 9.15C55.9074 9.15 53.9741 9.66666 52.3074 10.7C50.6408 11.7333 49.3408 13.1667 48.4074 15C47.5074 16.8 47.0574 18.9167 47.0574 21.35C47.0574 23.7833 47.5408 25.9167 48.5074 27.75C49.4741 29.5833 50.7908 31.0167 52.4574 32.05C54.1574 33.0833 56.1074 33.6 58.3074 33.6C60.0074 33.6 61.5908 33.2833 63.0574 32.65C64.5574 31.9833 65.7574 31.0333 66.6574 29.8C67.5908 28.5667 68.0574 27.0833 68.0574 25.35V22.25L71.6074 25.25H58.1074V18.75H75.8074V22.7C75.8074 25.7333 75.3074 28.3833 74.3074 30.65C73.3074 32.8833 71.9574 34.75 70.2574 36.25C68.5908 37.7167 66.7074 38.8167 64.6074 39.55C62.5408 40.25 60.4408 40.6 58.3074 40.6Z" fill="#4D9FFF"/>
</g>
<defs>
<clipPath id="clip0_1014_2316">
<rect width="80" height="43" fill="white"/>
</clipPath>
</defs>
</svg>
